# xmcd
# Copyright (C) 1995-1998 Ti Kan
#
# Track frame offsets:
#       150
#       6088
#       23784
#       43275
#       67078
#       87178
#       106828
#       124621
#       142640
#       171065
#       190725
#       214996
#       239550
#       266550
#
# Disc length: 3830 seconds
#
# Revision: 2
# Processed by: cddbd v1.4PL0 Copyright (c) Steve Scherf et al.
# Submitted via: CD-Transfer v1.0
#
DISCID=be0ef40e
DTITLE=Critical Acid - Fictions
DYEAR=2003
DGENRE=
TTITLE0=Bienvenue
TTITLE1=Fiction In Your Head
TTITLE2=Sunshine
TTITLE3=Night Of The Earth
TTITLE4=Dancing Dust
TTITLE5=Shadow and Veils
TTITLE6=Mindless
TTITLE7=Gold
TTITLE8=Open Your Exes
TTITLE9=Star
TTITLE10=Place
TTITLE11=Evening Walks
TTITLE12=Orphans Of Time
TTITLE13=Café D' Étoile
EXTD=
EXTT0=
EXTT1=
EXTT2=
EXTT3=
EXTT4=
EXTT5=
EXTT6=
EXTT7=
EXTT8=
EXTT9=
EXTT10=
EXTT11=
EXTT12=
EXTT13=
PLAYORDER=
